<svg xmlns="http://www.w3.org/2000/svg" width="80" height="80.019" viewBox="0 0 80 80.019"><defs><style>.a{opacity:0.3;}.b{fill:#00225c;}</style></defs><g class="a" transform="translate(-0.499 0)"><path class="b" d="M276.522,180.487A1.661,1.661,0,1,0,277.7,180,1.674,1.674,0,0,0,276.522,180.487Zm0,0" transform="translate(-232.584 -151.941)"/><path class="b" d="M76.037,109.5a1.662,1.662,0,1,0,1.175.487A1.676,1.676,0,0,0,76.037,109.5Zm0,0" transform="translate(-61.601 -92.431)"/><path class="b" d="M75.528,29.923a7.707,7.707,0,0,0-6.791.7l-2.2,1.389a14.178,14.178,0,0,0-9.753-3.878h-5.41a1.563,1.563,0,0,0,0,3.126h5.41a11.1,11.1,0,0,1,10.6,14.406l-.358,1.148a11.324,11.324,0,0,0,.285,7.519,8.114,8.114,0,0,1,.576,3.009V76.893H63.548l.932-1.33a1.564,1.564,0,0,0,.283-.9V63.622a1.563,1.563,0,0,0-.929-1.429A23.74,23.74,0,0,1,52.4,51.393l-.033-.064a1.563,1.563,0,0,0-2.78,1.43l.034.064q.359.7.759,1.373h-10.1a6,6,0,0,0,.16-1.37V31.692a6.11,6.11,0,0,0-2.277-4.757L62.427,2.668A1.563,1.563,0,0,0,60.216.458L35.054,25.62a6.1,6.1,0,0,0-.736-.046,3.244,3.244,0,0,0-.922.135l-.031-.03A8.081,8.081,0,0,1,31.5,22.562L28,11.693a4.509,4.509,0,0,0-4.3-3.136H17.963a4.541,4.541,0,0,0-2.793.965L8.585,14.691H4.831A4.328,4.328,0,0,0,.7,20.3L1.766,23.74a6.214,6.214,0,0,0,5.962,4.391H12l2.673,4.909a13.14,13.14,0,0,1,1.46,4.358,3.741,3.741,0,0,0-1.222,2.767v1.875a3.744,3.744,0,0,0,1.411,2.929A16.4,16.4,0,0,0,19.285,52.1l2.109,2.878V73.1L19.821,75.27a2.992,2.992,0,0,0,2.422,4.749h6.965a1.563,1.563,0,0,0,1.563-1.563V68.938a22.216,22.216,0,0,1,2.54-10.318,3.375,3.375,0,0,0,1.134.2,5.967,5.967,0,0,0,3.953-1.5h14.14a26.9,26.9,0,0,0,9.1,7.3v9.557l-.686.979a3.092,3.092,0,0,0,2.532,4.867h5.968a1.563,1.563,0,0,0,1.563-1.563V57.34a11.245,11.245,0,0,0-.8-4.162,8.188,8.188,0,0,1-.206-5.436l.358-1.149a14.211,14.211,0,0,0,.553-5.835,2.948,2.948,0,0,1,1.083,2.283v7.147a14.565,14.565,0,0,0,6.013,11.77A1.563,1.563,0,0,0,80.5,60.691V37.1a7.7,7.7,0,0,0-4.971-7.177ZM19.14,36.415c-.015-.082-.031-.164-.047-.245L29.521,25.741a11.194,11.194,0,0,0,1.6,2.109c.024.025.049.049.074.074a3.258,3.258,0,0,0-.131.908v7.582Zm5.882-23.764L26.23,16.4l-2.85,3.429A1.344,1.344,0,0,1,21,18.973V11.682h2.689a1.393,1.393,0,0,1,1.33.969ZM14.3,25.821a1.563,1.563,0,0,0-1.373-.816h-5.2a3.1,3.1,0,0,1-2.977-2.193L3.682,19.375a1.2,1.2,0,0,1,1.148-1.559H9.125a1.563,1.563,0,0,0,.965-.334l7.01-5.5a1.4,1.4,0,0,1,.777-.294v7.287a4.47,4.47,0,0,0,7.907,2.857l1.581-1.9.864,2.684L18.035,32.807q-.281-.64-.618-1.261ZM27.646,68.938v7.955h-5.14l1.716-2.365a1.565,1.565,0,0,0,.3-.918V54.466a1.561,1.561,0,0,0-.3-.924l-2.411-3.291a13.255,13.255,0,0,1-2.123-4.46H31.059v9.637a3.382,3.382,0,0,0,.071.69,25.333,25.333,0,0,0-3.484,12.819Zm6.539-13.509v-11.2a1.563,1.563,0,0,0-1.563-1.563H18.662a.626.626,0,0,1-.625-.625V40.166a.626.626,0,0,1,.625-.625h13.96a1.563,1.563,0,0,0,1.563-1.563V28.836a1.683,1.683,0,0,0,.145-.136,3,3,0,0,1,2.98,2.991V52.825a2.868,2.868,0,0,1-2.865,2.865.262.262,0,0,1-.261-.261Zm43.188,1.54a11.426,11.426,0,0,1-2.24-6.782V43.04a6.089,6.089,0,0,0-5.154-6.008,14.257,14.257,0,0,0-1.394-2.618l1.823-1.152A4.54,4.54,0,0,1,77.373,37.1Zm0,0"/></g></svg>