<svg xmlns="http://www.w3.org/2000/svg" width="80" height="79.997" viewBox="0 0 80 79.997"><defs><style>.a{opacity:0.3;isolation:isolate;}.b{fill:#00225c;}</style></defs><g transform="translate(-85 -51.643)"><g class="a" transform="translate(85 51.641)"><g transform="translate(0 0.002)"><path class="b" d="M77.935,34.869,44.971,2.062a7.029,7.029,0,0,0-9.939,0L2.061,34.873A7.032,7.032,0,0,0,9.94,46.248l4.144,31.71A2.344,2.344,0,0,0,16.407,80H63.593a2.344,2.344,0,0,0,2.324-2.04L70.06,46.248a7.032,7.032,0,0,0,7.874-11.379ZM18.465,75.312l-.613-4.687H27.24l.578,4.687Zm31.527-21.8-2.69,21.8H32.542l-2.69-21.8A10.189,10.189,0,0,1,40,42.188,10.074,10.074,0,0,1,49.992,53.511Zm11.544,21.8h-9.51l.578-4.687h9.545Zm1.225-9.375H53.182l1.462-11.849a14.826,14.826,0,1,0-29.443,0l1.462,11.853H17.24l-3.045-23.3L40,16.967,65.805,42.636ZM74.624,41.5a2.34,2.34,0,0,1-3.318,0L41.653,12a2.344,2.344,0,0,0-3.306,0L8.69,41.5a2.343,2.343,0,0,1-3.318-3.31L38.343,5.376a2.342,2.342,0,0,1,3.318,0L74.624,38.187A2.346,2.346,0,0,1,74.624,41.5Z" transform="translate(0 -0.002)"/></g><g transform="translate(37.656 28.126)"><circle class="b" cx="2.344" cy="2.344" r="2.344"/></g></g></g></svg>