<svg xmlns="http://www.w3.org/2000/svg" width="80" height="69.919" viewBox="0 0 80 69.919"><defs><style>.a{opacity:0.3;isolation:isolate;}.b{fill:#00225c;}</style></defs><g class="a" transform="translate(-62.986 -17.357)"><g transform="translate(62.986 17.357)"><path class="b" d="M56.393,45.572a19.479,19.479,0,0,0-32.8,0L14.918,59.1A12.33,12.33,0,0,0,30.26,77.046l.159-.071a24.238,24.238,0,0,1,19.3.071,12.262,12.262,0,0,0,4.948,1.047,12.418,12.418,0,0,0,2.76-.313A12.331,12.331,0,0,0,65.067,59.1Zm4.1,25.152a7.6,7.6,0,0,1-8.882,2.029,28.936,28.936,0,0,0-23.235,0l-.1.046a7.64,7.64,0,0,1-9.405-11.162L27.54,48.1a14.79,14.79,0,0,1,24.9,0l8.674,13.531a7.6,7.6,0,0,1-.625,9.09Zm0,0" transform="translate(-2.896 -8.173)"/><path class="b" d="M14.358,41.823a9.459,9.459,0,0,0,5.521-5.856,12.219,12.219,0,0,0-.216-8.425,12.227,12.227,0,0,0-5.489-6.394A9.458,9.458,0,0,0,6.156,20.5C.973,22.5-1.406,28.9.854,34.784c1.805,4.683,6.016,7.639,10.273,7.639a8.956,8.956,0,0,0,3.231-.6ZM5.231,33.1c-1.332-3.467-.162-7.155,2.61-8.22a4.351,4.351,0,0,1,1.57-.289,5.288,5.288,0,0,1,2.524.679,7.532,7.532,0,0,1,3.353,3.959,7.527,7.527,0,0,1,.168,5.184,4.849,4.849,0,0,1-2.778,3.034h0c-2.768,1.067-6.107-.884-7.443-4.348Zm0,0" transform="translate(0 -4.443)"/><path class="b" d="M36.778,26.779c6.479,0,11.751-6.006,11.751-13.388S43.258,0,36.778,0s-11.75,6.007-11.75,13.391S30.3,26.779,36.778,26.779Zm0-22.09c3.893,0,7.062,3.9,7.062,8.7s-3.168,8.7-7.062,8.7-7.061-3.9-7.061-8.7,3.167-8.7,7.061-8.7Zm0,0" transform="translate(-5.589 0)"/><path class="b" d="M64.25,31.877h0a9.578,9.578,0,0,0,3.026.489c4.725,0,9.33-3.439,11.088-8.725a13.13,13.13,0,0,0-.187-9.058A9.933,9.933,0,0,0,63.45,9.688a13.13,13.13,0,0,0-5.571,7.144C55.746,23.25,58.6,30,64.25,31.877ZM62.329,18.31A8.444,8.444,0,0,1,65.88,13.7a5.254,5.254,0,0,1,7.95,2.642,8.443,8.443,0,0,1,.084,5.82c-1.318,3.965-4.99,6.327-8.185,5.265s-4.719-5.151-3.4-9.116Zm0,0" transform="translate(-12.767 -1.808)"/><path class="b" d="M93.154,36.19l0,0c-4.468-3.3-11.151-1.87-14.9,3.191S75.1,51.25,79.558,54.553a9.186,9.186,0,0,0,5.518,1.782,11.879,11.879,0,0,0,9.382-4.969c3.743-5.063,3.159-11.871-1.3-15.175ZM90.689,48.575c-2.213,2.986-5.953,3.977-8.34,2.209s-2.531-5.632-.324-8.616a7.2,7.2,0,0,1,5.583-3.083,4.581,4.581,0,0,1,2.758.876c2.383,1.768,2.528,5.632.323,8.615Zm0,0" transform="translate(-16.924 -7.684)"/></g></g></svg>