<svg xmlns="http://www.w3.org/2000/svg" width="69.336" height="80" viewBox="0 0 69.336 80"><defs><style>.a{opacity:0.3;isolation:isolate;}.b{fill:#00225c;}</style></defs><g class="a" transform="translate(-33.344 -11.714)"><g transform="translate(8.908 -3.756)"><g transform="translate(10.569 12)"><path class="b" d="M75.2,39.469v-8a4,4,0,0,1,4-4,4,4,0,1,0,0-8,12.014,12.014,0,0,0-12,12v8a4,4,0,0,1-4,4V38.135a20,20,0,0,0-20-20H39.9c1.3-3.982.469-8.432-.694-12.716A2.167,2.167,0,0,0,35.7,3.945a1.156,1.156,0,0,0-.089.078L32.017,7.468H29.088L25.495,4.023c-.029-.027-.058-.053-.089-.078a2.167,2.167,0,0,0-3.513,1.506c-1.27,5.492-2.291,11.206-.011,15.677-.046,7.35,1.76,12.316,5.514,15.15l2.047,7.214a4.005,4.005,0,0,0-3.575,3.977V48.8a12.014,12.014,0,0,0-12,12V74.136A1.333,1.333,0,0,0,15.2,75.47h2.667v6.667A1.333,1.333,0,0,0,19.2,83.47h8A1.333,1.333,0,0,0,28.508,82.4l1.386-6.928H61.842L63.228,82.4a1.333,1.333,0,0,0,1.308,1.072h8a1.333,1.333,0,0,0,1.333-1.333V75.47h2.667a1.333,1.333,0,0,0,1.333-1.333V60.8a12.019,12.019,0,0,0-8.05-11.329A12,12,0,0,0,75.2,39.469Zm-5.333,0v-8A9.344,9.344,0,0,1,79.2,22.135a1.333,1.333,0,1,1,0,2.667,6.666,6.666,0,0,0-6.667,6.668v8A9.344,9.344,0,0,1,63.2,48.8H61.521a7.322,7.322,0,0,0,1.4-2.667h.28A6.674,6.674,0,0,0,69.869,39.469Zm-41.335,8a1.335,1.335,0,0,1,1.333-1.333H31.2a1.333,1.333,0,0,0,1.283-1.7L29.836,35.1a1.335,1.335,0,0,0-.525-.733c-3.3-2.278-4.853-6.711-4.758-13.552a1.331,1.331,0,0,0-.167-.664c-1.789-3.233-1.363-7.593-.026-13.527l3.27,3.134a1.333,1.333,0,0,0,.922.371h4a1.333,1.333,0,0,0,.923-.371l3.292-3.155c1.139,4.315,1.841,8.733-.053,12.224A1.333,1.333,0,0,0,37.886,20.8H43.2A17.332,17.332,0,0,1,60.535,38.138v6A4.672,4.672,0,0,1,55.868,48.8h-18V34.135a1.333,1.333,0,0,0-2.667,0V48.8H28.534ZM26.108,80.8H20.534V75.47h6.64Zm45.095,0H65.629L64.562,75.47H71.2Zm-54.668-8V62.136H75.2V72.8ZM65.869,51.469a9.347,9.347,0,0,1,9.237,8H16.631a9.347,9.347,0,0,1,9.237-8Z" transform="translate(0 0)"/><circle class="b" cx="1.333" cy="1.333" r="1.333" transform="translate(25.867 14.135)"/><circle class="b" cx="1.333" cy="1.333" r="1.333" transform="translate(32.534 14.135)"/></g></g></g></svg>