<svg xmlns="http://www.w3.org/2000/svg" width="85.721" height="82.638" viewBox="0 0 85.721 82.638"><defs><style>.a{fill:#b1bbcd;}</style></defs><g transform="translate(-1055.139 -1393.062)"><g transform="translate(1055.139 1391.12)"><path class="a" d="M68.794,72.164V70.318a1.256,1.256,0,0,0-2.511,0v1.847a1.256,1.256,0,0,0,2.511,0Z" transform="translate(-13.673 -13.846)"/><path class="a" d="M93.01,72.164V70.318a1.256,1.256,0,0,0-2.511,0v1.847a1.256,1.256,0,0,0,2.511,0Z" transform="translate(-18.668 -13.846)"/><path class="a" d="M78.525,76.705a3.484,3.484,0,0,0,5.7-2.674,1.256,1.256,0,0,0-2.511,0,.969.969,0,0,1-1.938,0,1.256,1.256,0,0,0-2.511,0,.969.969,0,0,1-1.938,0,1.256,1.256,0,0,0-2.511,0,3.478,3.478,0,0,0,5.7,2.674Z" transform="translate(-15.022 -14.612)"/><path class="a" d="M64.094,85.4v1.029a4.394,4.394,0,1,0,8.787,0V85.4a1.256,1.256,0,1,0-2.511,0v1.029a1.882,1.882,0,1,1-3.764,0V85.4a1.256,1.256,0,0,0-2.511,0Z" transform="translate(-13.222 -16.957)"/><path class="a" d="M89.208,90.823A4.4,4.4,0,0,0,93.6,86.429V85.4a1.256,1.256,0,0,0-2.511,0v1.029a1.882,1.882,0,1,1-3.765,0V85.4a1.256,1.256,0,0,0-2.511,0v1.029A4.4,4.4,0,0,0,89.208,90.823Z" transform="translate(-17.496 -16.957)"/><path class="a" d="M26.489,45.451A1.256,1.256,0,0,0,27.745,44.2a3.879,3.879,0,0,0-7.759,0,1.256,1.256,0,1,0,2.511,0,1.368,1.368,0,0,1,2.736,0A1.255,1.255,0,0,0,26.489,45.451Z" transform="translate(-4.123 -7.916)"/><path class="a" d="M50.792,45.451A1.256,1.256,0,0,0,52.047,44.2a1.368,1.368,0,0,1,2.736,0,1.256,1.256,0,1,0,2.511,0,3.879,3.879,0,0,0-7.759,0A1.255,1.255,0,0,0,50.792,45.451Z" transform="translate(-10.218 -7.916)"/><path class="a" d="M42.329,49.566a1.256,1.256,0,1,0-1.893-1.65,2.434,2.434,0,0,1-3.673,0,1.256,1.256,0,1,0-1.893,1.65A4.946,4.946,0,0,0,42.329,49.566Z" transform="translate(-7.129 -9.395)"/><path class="a" d="M85.708,67.643c-.2-1.954.276-5.974-1.953-11.075,1.887-7.438.881-12.239-.314-14.971a5.04,5.04,0,0,0-4.352-3c-7.67-.35-12.022,3.382-13.41,4.828a22.325,22.325,0,0,0-4.38,0,13.672,13.672,0,0,0-1.6-1.41,7.31,7.31,0,0,0,2.615-9.743A30.715,30.715,0,0,0,60.386,24.5c4.747,1.694,9.118.179,12.7-3.367a4,4,0,0,0-1.722-6.683,7.511,7.511,0,0,1-5.336-5.309,10.038,10.038,0,0,0-19.176-.252A30.847,30.847,0,0,0,15.645,9.3a1.256,1.256,0,0,0,1.3,2.149A28.426,28.426,0,0,1,59.253,29.274a7.3,7.3,0,0,0-4.059-.784c-5.34-.949-10.779-3.307-14.479-7.214a3.838,3.838,0,0,0-5.132-.4,32.494,32.494,0,0,1-10.095,4.9A69.333,69.333,0,0,1,8.126,28.5a7.294,7.294,0,0,0-4.173.773A28.336,28.336,0,0,1,13,14.323a1.256,1.256,0,1,0-1.647-1.9A30.8,30.8,0,0,0,.894,32.267a7.318,7.318,0,0,0,6.234,10.8,25.758,25.758,0,0,0,12.024,14.98C16.8,60.808,12.11,68.211,12.11,83.325a1.256,1.256,0,0,0,1.256,1.256H43.433a6.988,6.988,0,0,0,5.382-2.529,16.119,16.119,0,0,0,8.717,2.529H69.447a16.268,16.268,0,0,0,10.615-3.939,1.256,1.256,0,0,0-1.639-1.9,13.756,13.756,0,0,1-8.976,3.33H57.532a13.63,13.63,0,0,1-7.481-2.208,7.009,7.009,0,0,0-6.091-9.26,28.828,28.828,0,0,1-.053-5.975,19.6,19.6,0,0,1,39.164,0l.127,3.12a13.717,13.717,0,0,1-1.825,7.432,1.256,1.256,0,0,0,2.175,1.256,16.228,16.228,0,0,0,2.159-8.79ZM45.077,53.174c-.567-3.44-.638-7.375.761-10.571A2.511,2.511,0,0,1,48,41.1a15.6,15.6,0,0,1,10.131,2.865,22.146,22.146,0,0,0-13.057,9.208ZM57.1,40.409c-.112-.055-.224-.11-.34-.164a25.862,25.862,0,0,0-.044-9.208,4.8,4.8,0,0,1,.383,9.372ZM55.864,4.473A7.489,7.489,0,0,1,63.62,9.849a10.014,10.014,0,0,0,7.07,7.019h0a1.486,1.486,0,0,1,.631,2.48c-3.921,3.882-8.175,4.389-12.647,1.509a31.089,31.089,0,0,0-9.6-10.581,7.527,7.527,0,0,1,6.794-5.8ZM6.5,40.493a4.8,4.8,0,0,1-.005-9.457A25.721,25.721,0,0,0,6.5,40.493Zm2.567-9.5c19.611-.709,27.805-8.046,28.311-8.276a1.328,1.328,0,0,1,1.424.2,27.83,27.83,0,0,0,15.312,7.928,23.178,23.178,0,0,1,.249,8.5,19.509,19.509,0,0,0-6.473-.747,5.04,5.04,0,0,0-4.352,3c-1.881,4.3-1.576,9.564-.508,14.172-17.191,9.84-38.051-5.386-33.963-24.78Zm5.567,51.08c.1-5.229.866-12.226,3.7-18.077a19.18,19.18,0,0,1,3.15-4.78,25.5,25.5,0,0,0,20.859-.262c-1.153,3.788-.9,6.4-1.073,8.694a16.617,16.617,0,0,0,.145,2.938c-3.871-.055-4.08.171-4.632-.311l-3.148-3.44a7,7,0,1,0-10.328,9.45c3.523,3.847,3.321,3.637,3.512,3.828a16.459,16.459,0,0,0,2.4,1.961H14.633Zm28.8,0H37.616A12.693,12.693,0,0,1,28.6,78.332c-.126-.125.039.047-3.434-3.747a4.488,4.488,0,1,1,6.622-6.06c2.659,2.9,3.2,3.5,3.257,3.554a3.819,3.819,0,0,0,2.575,1.013h5.816a4.488,4.488,0,0,1,0,8.976ZM78.975,41.1a2.511,2.511,0,0,1,2.166,1.5c1.459,3.335,1.285,7.388.761,10.571a22.154,22.154,0,0,0-13.057-9.208A15.367,15.367,0,0,1,78.975,41.1Z" transform="translate(0 0)"/></g></g></svg>