<svg xmlns="http://www.w3.org/2000/svg" width="80" height="80.187" viewBox="0 0 80 80.187"><defs><style>.a{fill:#b1bbcd;}</style></defs><g transform="translate(-1058 -1400)"><g transform="translate(1057.785 1399.795)"><path class="a" d="M78.685,3.724A4.3,4.3,0,0,0,75.626.382a4.222,4.222,0,0,0-4.283,1.224C66.4,6.987,58.667,15.3,49.662,24.7a26.551,26.551,0,0,0-9.429-1.585,26.766,26.766,0,0,0-9.444,1.6C21.752,15.286,14.034,6.971,9.092,1.59A4.231,4.231,0,0,0,4.809.366,4.3,4.3,0,0,0,1.75,3.708,72.476,72.476,0,0,0,.683,26.534a51.471,51.471,0,0,0,4.5,15.8,37.946,37.946,0,0,0,8.378,11.8,31.152,31.152,0,0,0,4.455,11.845A36.135,36.135,0,0,0,31.651,78.227a17.966,17.966,0,0,0,17.1,0A36.394,36.394,0,0,0,62.385,65.975a30.982,30.982,0,0,0,4.44-11.813,37.654,37.654,0,0,0,8.409-11.829,52.039,52.039,0,0,0,4.5-15.8A71.873,71.873,0,0,0,78.685,3.724ZM76.645,26a48.884,48.884,0,0,1-4.157,14.81,39.539,39.539,0,0,1-5.208,8.315,44.153,44.153,0,0,0-.628-8.111,1.567,1.567,0,0,0-3.091.518c1.475,8.785.188,16.441-3.812,22.748A33.325,33.325,0,0,1,47.277,75.45a14.828,14.828,0,0,1-14.119,0A32.95,32.95,0,0,1,20.685,64.28c-4-6.307-5.287-13.963-3.812-22.748a1.567,1.567,0,1,0-3.091-.518,43.82,43.82,0,0,0-.628,8.079,39.6,39.6,0,0,1-5.193-8.283A48.883,48.883,0,0,1,3.8,26,69.449,69.449,0,0,1,4.84,4.32a1.137,1.137,0,0,1,.831-.926,1.044,1.044,0,0,1,1.114.329C11.6,8.948,19.038,16.965,27.745,26.048a19.969,19.969,0,0,0-3.059,1.992,1.562,1.562,0,0,0,.973,2.793,1.617,1.617,0,0,0,.973-.329,18,18,0,0,1,4.236-2.463,1.743,1.743,0,0,0,.251-.11,24.207,24.207,0,0,1,9.036-1.694h.188a24.053,24.053,0,0,1,8.974,1.679,1.439,1.439,0,0,0,.361.141A18.213,18.213,0,0,1,53.866,30.5,1.564,1.564,0,1,0,55.8,28.04a19.969,19.969,0,0,0-3.059-1.992C61.428,16.965,68.88,8.948,73.68,3.724a1.11,1.11,0,0,1,1.114-.329,1.162,1.162,0,0,1,.831.926A69.421,69.421,0,0,1,76.645,26Z" transform="translate(0 0)"/><path class="a" d="M59.276,78.24a7.609,7.609,0,0,1-1.208.377.141.141,0,0,0-.078.016,6.118,6.118,0,0,1-3.687-.267c-.016,0-.031-.016-.047-.016-.063-.031-.126-.047-.188-.078a1.788,1.788,0,0,1-.3-.157,6.82,6.82,0,0,1-1.741-1.349V75.95c.345-.2.769-.455,1.177-.753,1.773-1.208,2.589-2.322,2.589-3.467a2.856,2.856,0,0,0-2.228-2.793,11.371,11.371,0,0,0-3.169-.329,11.371,11.371,0,0,0-3.169.329A2.856,2.856,0,0,0,45,71.73c0,1.161.831,2.259,2.589,3.467.455.314.91.58,1.271.8v.769a7.119,7.119,0,0,1-1.741,1.349c-.188.094-.377.188-.58.267l-.235.094h-.016a5.832,5.832,0,0,1-2.777.282h-.047a1.211,1.211,0,0,0-.235-.031.435.435,0,0,0-.141-.016l-.188-.047a8.855,8.855,0,0,1-1.3-.408,1.566,1.566,0,0,0-1.177,2.9,5.527,5.527,0,0,0,.659.235c.831,2.385,3.5,5.946,9.256,5.946,5.695,0,8.378-3.483,9.225-5.867.282-.094.565-.188.863-.314a1.565,1.565,0,0,0,.863-2.039A1.515,1.515,0,0,0,59.276,78.24Z" transform="translate(-10.101 -17.615)"/><path class="a" d="M43.394,60.751a1.569,1.569,0,0,0-2.7-1.6c-1.726,2.934-5.428,2.51-5.6,2.479a1.561,1.561,0,0,0-1.757,1.349,1.584,1.584,0,0,0,1.349,1.773,6.293,6.293,0,0,0,1.02.063A8.681,8.681,0,0,0,43.394,60.751Z" transform="translate(-8.527 -14.983)"/><path class="a" d="M69.52,61.644c-.031,0-3.844.486-5.6-2.494a1.569,1.569,0,1,0-2.7,1.6,8.688,8.688,0,0,0,7.7,4.063,6.293,6.293,0,0,0,1.02-.063,1.568,1.568,0,1,0-.424-3.106Z" transform="translate(-15.654 -14.982)"/></g></g></svg>