<svg xmlns="http://www.w3.org/2000/svg" width="208.093" height="245.229" viewBox="0 0 208.093 245.229"><defs><style>.a{fill:#fd5d40;}</style></defs><g transform="translate(0)"><path class="a" d="M210.165,255.243a4.935,4.935,0,0,0,2.637-3.411c1.657-28.372-21.771-66.195-30.207-78.823a52.749,52.749,0,0,0-19.5,13.752s-12.185,8.177-16.508,47.907C169.375,264.183,197.694,259.357,210.165,255.243Z" transform="translate(-100.67 -169.326)"/><path class="a" d="M298.061,204.684l-37.336-9.113s-1.064-9.008-11.652-12.709c-7.717-2.7-34.306-17.987-60.468-12.589,9.891,15.055,31.894,52.166,30.154,81.849a13.07,13.07,0,0,1-8.429,10.963,69.014,69.014,0,0,1-21.335,3.4c-13.55,0-30.569-4.167-45.9-20.188-.3,5.091-.472,10.6-.5,16.556-.172,30.732-39.209,59.87-39.209,59.87l-5.2,10.775a141.052,141.052,0,0,0,47.9,56.869,91.161,91.161,0,0,1,8.88-34.817,75.373,75.373,0,0,1,25.174-29.375c1.243-33.873,12.237-43.773,21.409-46.036a9.638,9.638,0,0,1,8.124,1.657,11.725,11.725,0,0,1,4.543,8.776c.471,9.1,5.853,15.5,8.4,18.035a82.749,82.749,0,0,1,11.806,1.942l.341-3.194,2.842-27.6c.482-4.658,4.668-8.584,9.3-9.248,17.6-2.563,56.8-12.986,59.351-55.343C306.554,210.5,302.609,205.8,298.061,204.684Zm-58.17,9.839a4.767,4.767,0,1,1,4.769-4.767A4.768,4.768,0,0,1,239.892,214.523Z" transform="translate(-98.183 -169.126)"/><path class="a" d="M263.732,347.119c-1.411-12.008-18.362-21.9-40.266-23.309,0,0-11.63-8.941-12.411-24.373-.128-2.336-1.874-4.659-4.143-4.1-5.853,1.44-15.791,8.954-16.286,43.271,0,0-31.833,16.06-34.134,62.36a139.168,139.168,0,0,0,69.565,19.87l-.285-6.633a6.209,6.209,0,0,1,3.776-5.717l27.115-10.169s12.716.713,18.005-8.833a65.021,65.021,0,0,1,6.994-10.342,4.325,4.325,0,0,0-.2-5.959C275.924,367.838,264.787,356.093,263.732,347.119Zm-16.085,11.623a4.768,4.768,0,1,1,4.773-4.763A4.759,4.759,0,0,1,247.648,358.742Z" transform="translate(-101.18 -175.609)"/></g></svg>